<svg xmlns="http://www.w3.org/2000/svg" xmlns:xlink="http://www.w3.org/1999/xlink" width="725.841" height="349.731" viewBox="0 0 725.841 349.731">
  <defs>
    <linearGradient id="linear-gradient" x1="0.5" x2="0.5" y2="1" gradientUnits="objectBoundingBox">
      <stop offset="0" stop-color="#efeff2"/>
      <stop offset="0.532" stop-color="#fdfdfd"/>
      <stop offset="0.576" stop-color="#fff"/>
      <stop offset="0.581" stop-color="#ddf3ff"/>
      <stop offset="1" stop-color="#97cae5"/>
    </linearGradient>
    <linearGradient id="linear-gradient-2" x1="0.5" x2="0.5" y2="1" gradientUnits="objectBoundingBox">
      <stop offset="0" stop-color="#795a1e"/>
      <stop offset="1" stop-color="#624715"/>
    </linearGradient>
    <linearGradient id="linear-gradient-3" x1="0.5" x2="0.5" y2="1" gradientUnits="objectBoundingBox">
      <stop offset="0" stop-color="#b4955c"/>
      <stop offset="1" stop-color="#8d6838"/>
    </linearGradient>
    <linearGradient id="linear-gradient-4" x1="0.5" x2="0.5" y2="1" gradientUnits="objectBoundingBox">
      <stop offset="0" stop-color="#cdcdd3"/>
      <stop offset="1" stop-color="#b6b6be"/>
    </linearGradient>
    <linearGradient id="linear-gradient-5" y1="1" y2="0" xlink:href="#linear-gradient-4"/>
  </defs>
  <g id="Behavior" transform="translate(-1119.471 -975.469)">
    <path id="Path_8" data-name="Path 8" d="M1588.965,1252.326l-28.182-276.857h194.53l-24.954,276.857Z" transform="translate(90)" fill="url(#linear-gradient)"/>
    <g id="Group_3" data-name="Group 3" transform="translate(482.349 290.297)">
      <rect id="Rectangle_16" data-name="Rectangle 16" width="435" height="106" rx="53" transform="translate(766.651 788.297)" fill="#896f3f"/>
      <rect id="Rectangle_17" data-name="Rectangle 17" width="511" height="82" rx="41" transform="translate(714.651 772.297)" fill="url(#linear-gradient-2)"/>
      <path id="Path_3" data-name="Path 3" d="M771.888,568s15.763-19.833,31.711-19.833S818.481,568,835.68,568s18.336-19.833,36.713-19.833,16,21.255,36.8,19.833,26.309-19.833,46.371-19.833,16.332,18.41,33.876,19.833,19.119-19.833,36.334-19.833S1041.353,569.423,1058.3,568s18.326-19.833,34.751-19.833S1107.379,568,1124,568s23.7-19.833,43.819-19.833S1204.459,568,1204.459,568" transform="translate(-33.022 220.229)" fill="none" stroke="#cb2626" stroke-linecap="round" stroke-linejoin="round" stroke-width="10"/>
      <path id="Path_4" data-name="Path 4" d="M1204.459,568s-15.763-19.833-31.71-19.833S1157.866,568,1140.667,568s-18.336-19.833-36.713-19.833-16,21.255-36.8,19.833-26.309-19.833-46.371-19.833S1004.453,566.577,986.91,568s-19.119-19.833-36.334-19.833S934.994,569.423,918.049,568s-18.326-19.833-34.751-19.833S868.968,568,852.347,568s-23.7-19.833-43.819-19.833S771.888,568,771.888,568" transform="translate(-5.022 216.229)" fill="none" stroke="#cb9226" stroke-linecap="round" stroke-linejoin="round" stroke-width="10"/>
      <rect id="Rectangle_18" data-name="Rectangle 18" width="435" height="106" rx="53" transform="translate(752.651 801.297)" fill="url(#linear-gradient-3)"/>
      <rect id="Rectangle_19" data-name="Rectangle 19" width="17" height="14" rx="3" transform="translate(764.976 786.638) rotate(-17)" fill="#d2d3e2"/>
      <rect id="Rectangle_20" data-name="Rectangle 20" width="13" height="11" rx="3" transform="translate(829.068 763.245) rotate(38)" fill="#d2d3e2"/>
      <rect id="Rectangle_21" data-name="Rectangle 21" width="17" height="14" rx="3" transform="translate(888.763 774.347) rotate(38)" fill="#d2d3e2"/>
      <rect id="Rectangle_22" data-name="Rectangle 22" width="13.635" height="11.229" rx="3" transform="translate(924.927 771.388) rotate(14)" fill="#d2d3e2"/>
      <rect id="Rectangle_23" data-name="Rectangle 23" width="13.635" height="11.738" rx="3" transform="translate(978.585 770.021) rotate(-21)" fill="#d2d3e2"/>
      <rect id="Rectangle_24" data-name="Rectangle 24" width="19.956" height="12.936" rx="3" transform="translate(1028.585 783.371) rotate(-21)" fill="#d2d3e2"/>
      <rect id="Rectangle_25" data-name="Rectangle 25" width="19.956" height="12.936" rx="3" transform="matrix(0.839, 0.545, -0.545, 0.839, 1099.471, 762)" fill="#d2d3e2"/>
      <rect id="Rectangle_26" data-name="Rectangle 26" width="12.441" height="11.857" rx="3" transform="matrix(0.839, 0.545, -0.545, 0.839, 1170.915, 774.127)" fill="#d2d3e2"/>
      <path id="Path_6" data-name="Path 6" d="M8.139,3.5,0,358.98S1.436,371.227,8.139,370.3,16.57,358.98,16.57,358.98s4.315-208.676,12.938-227S42.9,104.3,42.9,104.3l-1.941-3.841,2.792-3.1-3.269-3.986,2.417-3.47L40.482,86.32,42.9,82.785l-3.392-2.741L42.9,76.3l-3.392-2.741L42.9,70l-3.392-3.058,2.349-3.651-2.991-2.36,2.378-4.254L38.8,53.78l2.162-3.386-2.594-3.382,2.594-3.18-2.64-3.157,2.64-3.235-3.568-3.547,2.6-3.5-3.616-3.628,2.143-3.7-3.661-1.828,1.517-4.151-4.85-1.4,1.005-4.547L28.018,9.849,26.911,5.777,21.75,6.812,19.6,2.477,14.348,3.5,11.458,0Z" transform="translate(637.123 950.273) rotate(-90)" fill="url(#linear-gradient-4)"/>
      <path id="Path_7" data-name="Path 7" d="M22.86,352.734c-3.873.558-8.358-51.967-7.264-85.725.263-8.107,4.309-15.213,4.8-20.1C22.852,222.333,0,11.366,0,11.366S1.436-.88,8.139.05,16.57,11.366,16.57,11.366s14.015,213.656,22.639,231.98A55.759,55.759,0,0,1,48.313,262c7.988,28.539,15.76,78.406,10.338,80.273-5.209,1.794-13.317-55.952-13.317-55.952l-5.78,1.223s7.039,60.575,1.626,61-9.86-60.382-9.86-60.382l-7.805,1.57S27.7,352.038,22.86,352.734Z" transform="matrix(-0.438, 0.899, -0.899, -0.438, 988.195, 980.565)" fill="url(#linear-gradient-5)"/>
    </g>
  </g>
</svg>
