<svg xmlns="http://www.w3.org/2000/svg" xmlns:xlink="http://www.w3.org/1999/xlink" width="746.637" height="213.797" viewBox="0 0 746.637 213.797">
  <defs>
    <linearGradient id="linear-gradient" x1="0.5" x2="0.5" y2="1" gradientUnits="objectBoundingBox">
      <stop offset="0" stop-color="#795a1e"/>
      <stop offset="1" stop-color="#624715"/>
    </linearGradient>
    <linearGradient id="linear-gradient-2" x1="0.5" x2="0.5" y2="1" gradientUnits="objectBoundingBox">
      <stop offset="0" stop-color="#b4955c"/>
      <stop offset="1" stop-color="#8d6838"/>
    </linearGradient>
  </defs>
  <g id="Behavior" transform="translate(-1232.751 -1086.225)">
    <g id="Group_3" data-name="Group 3" transform="translate(1119.471 1087.724)">
      <rect id="Rectangle_16" data-name="Rectangle 16" width="635.591" height="154.88" rx="61" transform="translate(189.258 38.423)" fill="#896f3f"/>
      <rect id="Rectangle_17" data-name="Rectangle 17" width="746.637" height="119.813" rx="59.906" transform="translate(113.279 15.045)" fill="url(#linear-gradient)"/>
      <rect id="Rectangle_30" data-name="Rectangle 30" width="655" height="87" rx="14" transform="translate(161.273 54.747)" fill="#ead21f"/>
      <path id="Path_3" data-name="Path 3" d="M771.888,577.145s23.031-28.978,46.333-28.978,21.745,28.978,46.875,28.978,26.791-28.978,53.643-28.978,23.373,31.057,53.765,28.978,38.441-28.978,67.754-28.978,23.863,26.9,49.5,28.978,27.935-28.978,53.089-28.978,22.767,31.057,47.526,28.978,26.777-28.978,50.776-28.978,20.938,28.978,45.223,28.978,34.635-28.978,64.026-28.978,53.535,28.978,53.535,28.978" transform="translate(-623.228 -538.822)" fill="none" stroke="#cb2626" stroke-linecap="round" stroke-linejoin="round" stroke-width="10"/>
      <path id="Path_4" data-name="Path 4" d="M1403.929,577.145s-23.031-28.978-46.333-28.978-21.745,28.978-46.875,28.978-26.791-28.978-53.643-28.978-23.373,31.057-53.765,28.978-38.442-28.978-67.754-28.978-23.863,26.9-49.5,28.978-27.935-28.978-53.089-28.978-22.767,31.057-47.526,28.978-26.777-28.978-50.776-28.978-20.938,28.978-45.223,28.978-34.635-28.978-64.026-28.978-53.535,28.978-53.535,28.978" transform="translate(-582.316 -544.666)" fill="none" stroke="#cb9226" stroke-linecap="round" stroke-linejoin="round" stroke-width="10"/>
      <rect id="Rectangle_18" data-name="Rectangle 18" width="635.591" height="154.88" rx="61" transform="translate(168.802 57.418)" fill="url(#linear-gradient-2)"/>
      <rect id="Rectangle_19" data-name="Rectangle 19" width="24.839" height="20.456" rx="3" transform="translate(186.811 35.999) rotate(-17)" fill="#d2d3e2"/>
      <rect id="Rectangle_20" data-name="Rectangle 20" width="18.995" height="16.072" rx="3" transform="translate(280.457 1.819) rotate(38)" fill="#d2d3e2"/>
      <rect id="Rectangle_21" data-name="Rectangle 21" width="24.839" height="20.456" rx="3" transform="translate(367.679 18.04) rotate(38)" fill="#d2d3e2"/>
      <rect id="Rectangle_22" data-name="Rectangle 22" width="19.922" height="16.407" rx="3" transform="translate(420.519 13.718) rotate(14)" fill="#d2d3e2"/>
      <rect id="Rectangle_23" data-name="Rectangle 23" width="19.922" height="17.151" rx="3" transform="translate(498.92 11.72) rotate(-21)" fill="#d2d3e2"/>
      <rect id="Rectangle_24" data-name="Rectangle 24" width="29.159" height="18.902" rx="3" transform="translate(571.977 31.226) rotate(-21)" fill="#d2d3e2"/>
      <rect id="Rectangle_25" data-name="Rectangle 25" width="29.159" height="18.902" rx="3" transform="matrix(0.839, 0.545, -0.545, 0.839, 675.55, 0)" fill="#d2d3e2"/>
      <rect id="Rectangle_26" data-name="Rectangle 26" width="18.177" height="17.325" rx="3" transform="matrix(0.839, 0.545, -0.545, 0.839, 779.939, 17.719)" fill="#d2d3e2"/>
    </g>
  </g>
</svg>
