<svg xmlns="http://www.w3.org/2000/svg" xmlns:xlink="http://www.w3.org/1999/xlink" width="758.133" height="217.011" viewBox="0 0 758.133 217.011">
  <defs>
    <linearGradient id="linear-gradient" x1="0.5" x2="0.5" y2="1" gradientUnits="objectBoundingBox">
      <stop offset="0" stop-color="#795a1e"/>
      <stop offset="1" stop-color="#624715"/>
    </linearGradient>
    <linearGradient id="linear-gradient-2" x1="0.5" x2="0.5" y2="1" gradientUnits="objectBoundingBox">
      <stop offset="0" stop-color="#b4955c"/>
      <stop offset="1" stop-color="#8d6838"/>
    </linearGradient>
  </defs>
  <g id="Presentation" transform="translate(-714.651 -414.976)">
    <rect id="Rectangle_4" data-name="Rectangle 4" width="645.378" height="157.264" rx="61" transform="translate(791.8 455.436)" fill="#896f3f"/>
    <rect id="Rectangle_7" data-name="Rectangle 7" width="758.133" height="121.657" rx="60.829" transform="translate(714.651 431.698)" fill="url(#linear-gradient)"/>
    <path id="Path_1" data-name="Path 1" d="M771.888,577.592s23.386-29.424,47.047-29.424,22.08,29.424,47.6,29.424,27.2-29.424,54.469-29.424,23.733,31.535,54.593,29.424,39.033-29.424,68.8-29.424,24.231,27.313,50.259,29.424,28.365-29.424,53.906-29.424,23.118,31.535,48.258,29.424,27.189-29.424,51.558-29.424,21.26,29.424,45.919,29.424,35.169-29.424,65.011-29.424,54.359,29.424,54.359,29.424" transform="translate(-21.311 -122.257)" fill="none" stroke="#cb2626" stroke-linecap="round" stroke-linejoin="round" stroke-width="10"/>
    <path id="Path_2" data-name="Path 2" d="M1413.661,577.592s-23.386-29.424-47.047-29.424-22.08,29.424-47.6,29.424-27.2-29.424-54.469-29.424-23.733,31.535-54.593,29.424-39.033-29.424-68.8-29.424-24.231,27.313-50.259,29.424-28.365-29.424-53.906-29.424-23.118,31.535-48.258,29.424-27.189-29.424-51.558-29.424-21.26,29.424-45.919,29.424-35.169-29.424-65.011-29.424-54.359,29.424-54.359,29.424" transform="translate(20.23 -128.191)" fill="none" stroke="#cb9226" stroke-linecap="round" stroke-linejoin="round" stroke-width="10"/>
    <rect id="Rectangle_6" data-name="Rectangle 6" width="645.378" height="157.264" rx="61" transform="translate(771.029 474.723)" fill="url(#linear-gradient-2)"/>
  </g>
</svg>
